<?xml version="1.0" encoding="UTF-8" standalone="no"?>
<!DOCTYPE svg PUBLIC "-//W3C//DTD SVG 1.1//EN"
 "http://www.w3.org/Graphics/SVG/1.1/DTD/svg11.dtd">
<!-- Generated by graphviz version 2.40.1 (20161225.0304)
 -->
<!-- Title: bd_projeto Pages: 1 -->
<svg width="786pt" height="489pt"
 viewBox="0.00 0.00 786.00 489.00" xmlns="http://www.w3.org/2000/svg" xmlns:xlink="http://www.w3.org/1999/xlink">
<g id="graph0" class="graph" transform="scale(1 1) rotate(0) translate(4 485)">
<title>bd_projeto</title>
<polygon fill="#ffffff" stroke="transparent" points="-4,4 -4,-485 782,-485 782,4 -4,4"/>
<!-- public.tenis_corrida -->
<g id="node1" class="node">
<title>public.tenis_corrida</title>
<polygon fill="#efefef" stroke="transparent" points="43,-402.5 43,-437.5 339,-437.5 339,-402.5 43,-402.5"/>
<polygon fill="none" stroke="#000000" points="43,-402.5 43,-437.5 339,-437.5 339,-402.5 43,-402.5"/>
<text text-anchor="start" x="49.7053" y="-415.3" font-family="Arial Bold" font-size="18.00" fill="#000000">public.tenis_corrida</text>
<text text-anchor="start" x="204.7267" y="-415.3" font-family="Arial" font-size="14.00" fill="#000000">    </text>
<text text-anchor="start" x="238.9315" y="-415.3" font-family="Arial" font-size="14.00" fill="#666666">[BASE TABLE]</text>
<polygon fill="none" stroke="#000000" points="43,-372.5 43,-402.5 339,-402.5 339,-372.5 43,-372.5"/>
<text text-anchor="start" x="50" y="-383.9" font-family="Arial" font-size="14.00" fill="#000000">marca    </text>
<text text-anchor="start" x="123.0912" y="-383.9" font-family="Arial" font-size="14.00" fill="#666666">[varchar(255)]</text>
<polygon fill="none" stroke="#000000" points="43,-342.5 43,-372.5 339,-372.5 339,-342.5 43,-342.5"/>
<text text-anchor="start" x="50" y="-353.9" font-family="Arial" font-size="14.00" fill="#000000">produto    </text>
<text text-anchor="start" x="131.669" y="-353.9" font-family="Arial" font-size="14.00" fill="#666666">[varchar(255)]</text>
<polygon fill="none" stroke="#000000" points="43,-312.5 43,-342.5 339,-342.5 339,-312.5 43,-312.5"/>
<text text-anchor="start" x="50" y="-323.9" font-family="Arial" font-size="14.00" fill="#000000">preco_velho    </text>
<text text-anchor="start" x="160.4502" y="-323.9" font-family="Arial" font-size="14.00" fill="#666666">[numeric(7,2)]</text>
<polygon fill="none" stroke="#000000" points="43,-282.5 43,-312.5 339,-312.5 339,-282.5 43,-282.5"/>
<text text-anchor="start" x="50" y="-293.9" font-family="Arial" font-size="14.00" fill="#000000">preco_atual    </text>
<text text-anchor="start" x="157.3408" y="-293.9" font-family="Arial" font-size="14.00" fill="#666666">[numeric(7,2)]</text>
<polygon fill="none" stroke="#000000" points="43,-252.5 43,-282.5 339,-282.5 339,-252.5 43,-252.5"/>
<text text-anchor="start" x="50" y="-263.9" font-family="Arial" font-size="14.00" fill="#000000">promocao    </text>
<text text-anchor="start" x="146.439" y="-263.9" font-family="Arial" font-size="14.00" fill="#666666">[boolean]</text>
<polygon fill="none" stroke="#000000" points="43,-222.5 43,-252.5 339,-252.5 339,-222.5 43,-222.5"/>
<text text-anchor="start" x="50" y="-233.9" font-family="Arial" font-size="14.00" fill="#000000">percentual_promocao    </text>
<text text-anchor="start" x="219.575" y="-233.9" font-family="Arial" font-size="14.00" fill="#666666">[numeric(5,2)]</text>
<polygon fill="none" stroke="#000000" points="43,-192.5 43,-222.5 339,-222.5 339,-192.5 43,-192.5"/>
<text text-anchor="start" x="50" y="-203.9" font-family="Arial" font-size="14.00" fill="#000000">nota_avaliacao    </text>
<text text-anchor="start" x="178.352" y="-203.9" font-family="Arial" font-size="14.00" fill="#666666">[numeric(3,2)]</text>
<polygon fill="none" stroke="#000000" points="43,-162.5 43,-192.5 339,-192.5 339,-162.5 43,-162.5"/>
<text text-anchor="start" x="50" y="-173.9" font-family="Arial" font-size="14.00" fill="#000000">num_avaliacoes    </text>
<text text-anchor="start" x="185.3394" y="-173.9" font-family="Arial" font-size="14.00" fill="#666666">[integer]</text>
<polygon fill="none" stroke="#000000" points="43,-132.5 43,-162.5 339,-162.5 339,-132.5 43,-132.5"/>
<text text-anchor="start" x="50" y="-143.9" font-family="Arial" font-size="14.00" fill="#000000">_data_coleta    </text>
<text text-anchor="start" x="164.3534" y="-143.9" font-family="Arial" font-size="14.00" fill="#666666">[date]</text>
<polygon fill="none" stroke="#000000" points="43,-102.5 43,-132.5 339,-132.5 339,-102.5 43,-102.5"/>
<text text-anchor="start" x="50" y="-113.9" font-family="Arial" font-size="14.00" fill="#000000">_horario_coleta    </text>
<text text-anchor="start" x="180.6732" y="-113.9" font-family="Arial" font-size="14.00" fill="#666666">[time without time zone]</text>
<polygon fill="none" stroke="#000000" points="43,-72.5 43,-102.5 339,-102.5 339,-72.5 43,-72.5"/>
<text text-anchor="start" x="50" y="-83.9" font-family="Arial" font-size="14.00" fill="#000000">_pagina    </text>
<text text-anchor="start" x="134.007" y="-83.9" font-family="Arial" font-size="14.00" fill="#666666">[smallint]</text>
<polygon fill="none" stroke="#000000" points="43,-42.5 43,-72.5 339,-72.5 339,-42.5 43,-42.5"/>
<text text-anchor="start" x="50" y="-53.9" font-family="Arial" font-size="14.00" fill="#000000">_ordem    </text>
<text text-anchor="start" x="131.6564" y="-53.9" font-family="Arial" font-size="14.00" fill="#666666">[smallint]</text>
</g>
<!-- public.view_tenis_corrida -->
<g id="node2" class="node">
<title>public.view_tenis_corrida</title>
<polygon fill="#efefef" stroke="transparent" points="443,-402.5 443,-437.5 735,-437.5 735,-402.5 443,-402.5"/>
<polygon fill="none" stroke="#000000" points="443,-402.5 443,-437.5 735,-437.5 735,-402.5 443,-402.5"/>
<text text-anchor="start" x="449.6067" y="-415.3" font-family="Arial Bold" font-size="18.00" fill="#000000">public.view_tenis_corrida</text>
<text text-anchor="start" x="650.6289" y="-415.3" font-family="Arial" font-size="14.00" fill="#000000">    </text>
<text text-anchor="start" x="684.8337" y="-415.3" font-family="Arial" font-size="14.00" fill="#666666">[VIEW]</text>
<polygon fill="none" stroke="#000000" points="443,-372.5 443,-402.5 735,-402.5 735,-372.5 443,-372.5"/>
<text text-anchor="start" x="450" y="-383.9" font-family="Arial" font-size="14.00" fill="#000000">marca    </text>
<text text-anchor="start" x="523.0912" y="-383.9" font-family="Arial" font-size="14.00" fill="#666666">[varchar(255)]</text>
<polygon fill="none" stroke="#000000" points="443,-342.5 443,-372.5 735,-372.5 735,-342.5 443,-342.5"/>
<text text-anchor="start" x="450" y="-353.9" font-family="Arial" font-size="14.00" fill="#000000">produto    </text>
<text text-anchor="start" x="531.669" y="-353.9" font-family="Arial" font-size="14.00" fill="#666666">[varchar(255)]</text>
<polygon fill="none" stroke="#000000" points="443,-312.5 443,-342.5 735,-342.5 735,-312.5 443,-312.5"/>
<text text-anchor="start" x="450" y="-323.9" font-family="Arial" font-size="14.00" fill="#000000">preco_velho    </text>
<text text-anchor="start" x="560.4502" y="-323.9" font-family="Arial" font-size="14.00" fill="#666666">[real]</text>
<polygon fill="none" stroke="#000000" points="443,-282.5 443,-312.5 735,-312.5 735,-282.5 443,-282.5"/>
<text text-anchor="start" x="450" y="-293.9" font-family="Arial" font-size="14.00" fill="#000000">preco_atual    </text>
<text text-anchor="start" x="557.3408" y="-293.9" font-family="Arial" font-size="14.00" fill="#666666">[real]</text>
<polygon fill="none" stroke="#000000" points="443,-252.5 443,-282.5 735,-282.5 735,-252.5 443,-252.5"/>
<text text-anchor="start" x="450" y="-263.9" font-family="Arial" font-size="14.00" fill="#000000">promocao    </text>
<text text-anchor="start" x="546.439" y="-263.9" font-family="Arial" font-size="14.00" fill="#666666">[boolean]</text>
<polygon fill="none" stroke="#000000" points="443,-222.5 443,-252.5 735,-252.5 735,-222.5 443,-222.5"/>
<text text-anchor="start" x="450" y="-233.9" font-family="Arial" font-size="14.00" fill="#000000">percentual_promocao    </text>
<text text-anchor="start" x="619.575" y="-233.9" font-family="Arial" font-size="14.00" fill="#666666">[real]</text>
<polygon fill="none" stroke="#000000" points="443,-192.5 443,-222.5 735,-222.5 735,-192.5 443,-192.5"/>
<text text-anchor="start" x="450" y="-203.9" font-family="Arial" font-size="14.00" fill="#000000">nota_avaliacao    </text>
<text text-anchor="start" x="578.352" y="-203.9" font-family="Arial" font-size="14.00" fill="#666666">[real]</text>
<polygon fill="none" stroke="#000000" points="443,-162.5 443,-192.5 735,-192.5 735,-162.5 443,-162.5"/>
<text text-anchor="start" x="450" y="-173.9" font-family="Arial" font-size="14.00" fill="#000000">num_avaliacoes    </text>
<text text-anchor="start" x="585.3394" y="-173.9" font-family="Arial" font-size="14.00" fill="#666666">[integer]</text>
<polygon fill="none" stroke="#000000" points="443,-132.5 443,-162.5 735,-162.5 735,-132.5 443,-132.5"/>
<text text-anchor="start" x="450" y="-143.9" font-family="Arial" font-size="14.00" fill="#000000">data_coleta    </text>
<text text-anchor="start" x="556.5708" y="-143.9" font-family="Arial" font-size="14.00" fill="#666666">[date]</text>
<polygon fill="none" stroke="#000000" points="443,-102.5 443,-132.5 735,-132.5 735,-102.5 443,-102.5"/>
<text text-anchor="start" x="450" y="-113.9" font-family="Arial" font-size="14.00" fill="#000000">horario_coleta    </text>
<text text-anchor="start" x="572.8906" y="-113.9" font-family="Arial" font-size="14.00" fill="#666666">[time without time zone]</text>
<polygon fill="none" stroke="#000000" points="443,-72.5 443,-102.5 735,-102.5 735,-72.5 443,-72.5"/>
<text text-anchor="start" x="450" y="-83.9" font-family="Arial" font-size="14.00" fill="#000000">pagina    </text>
<text text-anchor="start" x="526.2244" y="-83.9" font-family="Arial" font-size="14.00" fill="#666666">[smallint]</text>
<polygon fill="none" stroke="#000000" points="443,-42.5 443,-72.5 735,-72.5 735,-42.5 443,-42.5"/>
<text text-anchor="start" x="450" y="-53.9" font-family="Arial" font-size="14.00" fill="#000000">ordem    </text>
<text text-anchor="start" x="523.8738" y="-53.9" font-family="Arial" font-size="14.00" fill="#666666">[smallint]</text>
</g>
</g>
</svg>
