<?xml version="1.0" encoding="UTF-8" standalone="no"?>
<!DOCTYPE svg PUBLIC "-//W3C//DTD SVG 1.1//EN"
 "http://www.w3.org/Graphics/SVG/1.1/DTD/svg11.dtd">
<!-- Generated by graphviz version 2.40.1 (20161225.0304)
 -->
<!-- Title: public.tenis_corrida Pages: 1 -->
<svg width="396pt" height="495pt"
 viewBox="0.00 0.00 396.00 495.00" xmlns="http://www.w3.org/2000/svg" xmlns:xlink="http://www.w3.org/1999/xlink">
<g id="graph0" class="graph" transform="scale(1 1) rotate(0) translate(4 491)">
<title>public.tenis_corrida</title>
<polygon fill="#ffffff" stroke="transparent" points="-4,4 -4,-491 392,-491 392,4 -4,4"/>
<!-- public.tenis_corrida -->
<g id="node1" class="node">
<title>public.tenis_corrida</title>
<polygon fill="#efefef" stroke="transparent" points="46,-405.5 46,-440.5 342,-440.5 342,-405.5 46,-405.5"/>
<polygon fill="none" stroke="#000000" points="46,-405.5 46,-440.5 342,-440.5 342,-405.5 46,-405.5"/>
<text text-anchor="start" x="52.7053" y="-418.3" font-family="Arial Bold" font-size="18.00" fill="#000000">public.tenis_corrida</text>
<text text-anchor="start" x="207.7267" y="-418.3" font-family="Arial" font-size="14.00" fill="#000000">    </text>
<text text-anchor="start" x="241.9315" y="-418.3" font-family="Arial" font-size="14.00" fill="#666666">[BASE TABLE]</text>
<polygon fill="none" stroke="#000000" points="46,-375.5 46,-405.5 342,-405.5 342,-375.5 46,-375.5"/>
<text text-anchor="start" x="53" y="-386.9" font-family="Arial" font-size="14.00" fill="#000000">marca </text>
<text text-anchor="start" x="95.777" y="-386.9" font-family="Arial" font-size="14.00" fill="#666666">[varchar(255)]</text>
<polygon fill="none" stroke="#000000" points="46,-345.5 46,-375.5 342,-375.5 342,-345.5 46,-345.5"/>
<text text-anchor="start" x="53" y="-356.9" font-family="Arial" font-size="14.00" fill="#000000">produto </text>
<text text-anchor="start" x="104.3548" y="-356.9" font-family="Arial" font-size="14.00" fill="#666666">[varchar(255)]</text>
<polygon fill="none" stroke="#000000" points="46,-315.5 46,-345.5 342,-345.5 342,-315.5 46,-315.5"/>
<text text-anchor="start" x="53" y="-326.9" font-family="Arial" font-size="14.00" fill="#000000">preco_velho </text>
<text text-anchor="start" x="133.136" y="-326.9" font-family="Arial" font-size="14.00" fill="#666666">[numeric(7,2)]</text>
<polygon fill="none" stroke="#000000" points="46,-285.5 46,-315.5 342,-315.5 342,-285.5 46,-285.5"/>
<text text-anchor="start" x="53" y="-296.9" font-family="Arial" font-size="14.00" fill="#000000">preco_atual </text>
<text text-anchor="start" x="130.0266" y="-296.9" font-family="Arial" font-size="14.00" fill="#666666">[numeric(7,2)]</text>
<polygon fill="none" stroke="#000000" points="46,-255.5 46,-285.5 342,-285.5 342,-255.5 46,-255.5"/>
<text text-anchor="start" x="53" y="-266.9" font-family="Arial" font-size="14.00" fill="#000000">promocao </text>
<text text-anchor="start" x="119.1248" y="-266.9" font-family="Arial" font-size="14.00" fill="#666666">[boolean]</text>
<polygon fill="none" stroke="#000000" points="46,-225.5 46,-255.5 342,-255.5 342,-225.5 46,-225.5"/>
<text text-anchor="start" x="53" y="-236.9" font-family="Arial" font-size="14.00" fill="#000000">percentual_promocao </text>
<text text-anchor="start" x="192.2608" y="-236.9" font-family="Arial" font-size="14.00" fill="#666666">[numeric(5,2)]</text>
<polygon fill="none" stroke="#000000" points="46,-195.5 46,-225.5 342,-225.5 342,-195.5 46,-195.5"/>
<text text-anchor="start" x="53" y="-206.9" font-family="Arial" font-size="14.00" fill="#000000">nota_avaliacao </text>
<text text-anchor="start" x="151.0378" y="-206.9" font-family="Arial" font-size="14.00" fill="#666666">[numeric(3,2)]</text>
<polygon fill="none" stroke="#000000" points="46,-165.5 46,-195.5 342,-195.5 342,-165.5 46,-165.5"/>
<text text-anchor="start" x="53" y="-176.9" font-family="Arial" font-size="14.00" fill="#000000">num_avaliacoes </text>
<text text-anchor="start" x="158.0252" y="-176.9" font-family="Arial" font-size="14.00" fill="#666666">[integer]</text>
<polygon fill="none" stroke="#000000" points="46,-135.5 46,-165.5 342,-165.5 342,-135.5 46,-135.5"/>
<text text-anchor="start" x="53" y="-146.9" font-family="Arial" font-size="14.00" fill="#000000">_data_coleta </text>
<text text-anchor="start" x="137.0392" y="-146.9" font-family="Arial" font-size="14.00" fill="#666666">[date]</text>
<polygon fill="none" stroke="#000000" points="46,-105.5 46,-135.5 342,-135.5 342,-105.5 46,-105.5"/>
<text text-anchor="start" x="53" y="-116.9" font-family="Arial" font-size="14.00" fill="#000000">_horario_coleta </text>
<text text-anchor="start" x="153.359" y="-116.9" font-family="Arial" font-size="14.00" fill="#666666">[time without time zone]</text>
<polygon fill="none" stroke="#000000" points="46,-75.5 46,-105.5 342,-105.5 342,-75.5 46,-75.5"/>
<text text-anchor="start" x="53" y="-86.9" font-family="Arial" font-size="14.00" fill="#000000">_pagina </text>
<text text-anchor="start" x="106.6928" y="-86.9" font-family="Arial" font-size="14.00" fill="#666666">[smallint]</text>
<polygon fill="none" stroke="#000000" points="46,-45.5 46,-75.5 342,-75.5 342,-45.5 46,-45.5"/>
<text text-anchor="start" x="53" y="-56.9" font-family="Arial" font-size="14.00" fill="#000000">_ordem </text>
<text text-anchor="start" x="104.3422" y="-56.9" font-family="Arial" font-size="14.00" fill="#666666">[smallint]</text>
<polygon fill="none" stroke="#000000" stroke-width="3" points="44.5,-44.5 44.5,-442.5 343.5,-442.5 343.5,-44.5 44.5,-44.5"/>
</g>
</g>
</svg>
