<?xml version="1.0" encoding="UTF-8" standalone="no"?>
<!DOCTYPE svg PUBLIC "-//W3C//DTD SVG 1.1//EN"
 "http://www.w3.org/Graphics/SVG/1.1/DTD/svg11.dtd">
<!-- Generated by graphviz version 2.40.1 (20161225.0304)
 -->
<!-- Title: db_dashboard_ptgb Pages: 1 -->
<svg width="806pt" height="549pt"
 viewBox="0.00 0.00 806.00 549.00" xmlns="http://www.w3.org/2000/svg" xmlns:xlink="http://www.w3.org/1999/xlink">
<g id="graph0" class="graph" transform="scale(1 1) rotate(0) translate(4 545)">
<title>db_dashboard_ptgb</title>
<polygon fill="#ffffff" stroke="transparent" points="-4,4 -4,-545 802,-545 802,4 -4,4"/>
<!-- public.mercado_livre -->
<g id="node1" class="node">
<title>public.mercado_livre</title>
<polygon fill="#efefef" stroke="transparent" points="43,-462.5 43,-497.5 349,-497.5 349,-462.5 43,-462.5"/>
<polygon fill="none" stroke="#000000" points="43,-462.5 43,-497.5 349,-497.5 349,-462.5 43,-462.5"/>
<text text-anchor="start" x="49.7103" y="-475.3" font-family="Arial Bold" font-size="18.00" fill="#000000">public.mercado_livre</text>
<text text-anchor="start" x="214.7217" y="-475.3" font-family="Arial" font-size="14.00" fill="#000000">    </text>
<text text-anchor="start" x="248.9265" y="-475.3" font-family="Arial" font-size="14.00" fill="#666666">[BASE TABLE]</text>
<polygon fill="none" stroke="#000000" points="43,-432.5 43,-462.5 349,-462.5 349,-432.5 43,-432.5"/>
<text text-anchor="start" x="50" y="-443.9" font-family="Arial" font-size="14.00" fill="#000000">marca    </text>
<text text-anchor="start" x="123.0912" y="-443.9" font-family="Arial" font-size="14.00" fill="#666666">[varchar(255)]</text>
<polygon fill="none" stroke="#000000" points="43,-402.5 43,-432.5 349,-432.5 349,-402.5 43,-402.5"/>
<text text-anchor="start" x="50" y="-413.9" font-family="Arial" font-size="14.00" fill="#000000">produto    </text>
<text text-anchor="start" x="131.669" y="-413.9" font-family="Arial" font-size="14.00" fill="#666666">[varchar(255)]</text>
<polygon fill="none" stroke="#000000" points="43,-372.5 43,-402.5 349,-402.5 349,-372.5 43,-372.5"/>
<text text-anchor="start" x="50" y="-383.9" font-family="Arial" font-size="14.00" fill="#000000">preco_velho    </text>
<text text-anchor="start" x="160.4502" y="-383.9" font-family="Arial" font-size="14.00" fill="#666666">[numeric(7,2)]</text>
<polygon fill="none" stroke="#000000" points="43,-342.5 43,-372.5 349,-372.5 349,-342.5 43,-342.5"/>
<text text-anchor="start" x="50" y="-353.9" font-family="Arial" font-size="14.00" fill="#000000">preco_atual    </text>
<text text-anchor="start" x="157.3408" y="-353.9" font-family="Arial" font-size="14.00" fill="#666666">[numeric(7,2)]</text>
<polygon fill="none" stroke="#000000" points="43,-312.5 43,-342.5 349,-342.5 349,-312.5 43,-312.5"/>
<text text-anchor="start" x="50" y="-323.9" font-family="Arial" font-size="14.00" fill="#000000">promocao    </text>
<text text-anchor="start" x="146.439" y="-323.9" font-family="Arial" font-size="14.00" fill="#666666">[boolean]</text>
<polygon fill="none" stroke="#000000" points="43,-282.5 43,-312.5 349,-312.5 349,-282.5 43,-282.5"/>
<text text-anchor="start" x="50" y="-293.9" font-family="Arial" font-size="14.00" fill="#000000">percentual_promocao    </text>
<text text-anchor="start" x="219.575" y="-293.9" font-family="Arial" font-size="14.00" fill="#666666">[numeric(5,2)]</text>
<polygon fill="none" stroke="#000000" points="43,-252.5 43,-282.5 349,-282.5 349,-252.5 43,-252.5"/>
<text text-anchor="start" x="50" y="-263.9" font-family="Arial" font-size="14.00" fill="#000000">nota_avaliacao    </text>
<text text-anchor="start" x="178.352" y="-263.9" font-family="Arial" font-size="14.00" fill="#666666">[numeric(3,2)]</text>
<polygon fill="none" stroke="#000000" points="43,-222.5 43,-252.5 349,-252.5 349,-222.5 43,-222.5"/>
<text text-anchor="start" x="50" y="-233.9" font-family="Arial" font-size="14.00" fill="#000000">num_avaliacoes    </text>
<text text-anchor="start" x="185.3394" y="-233.9" font-family="Arial" font-size="14.00" fill="#666666">[integer]</text>
<polygon fill="none" stroke="#000000" points="43,-192.5 43,-222.5 349,-222.5 349,-192.5 43,-192.5"/>
<text text-anchor="start" x="50" y="-203.9" font-family="Arial" font-size="14.00" fill="#000000">_fonte    </text>
<text text-anchor="start" x="123.1164" y="-203.9" font-family="Arial" font-size="14.00" fill="#666666">[varchar(255)]</text>
<polygon fill="none" stroke="#000000" points="43,-162.5 43,-192.5 349,-192.5 349,-162.5 43,-162.5"/>
<text text-anchor="start" x="50" y="-173.9" font-family="Arial" font-size="14.00" fill="#000000">_site    </text>
<text text-anchor="start" x="113.7672" y="-173.9" font-family="Arial" font-size="14.00" fill="#666666">[varchar(255)]</text>
<polygon fill="none" stroke="#000000" points="43,-132.5 43,-162.5 349,-162.5 349,-132.5 43,-132.5"/>
<text text-anchor="start" x="50" y="-143.9" font-family="Arial" font-size="14.00" fill="#000000">_data_coleta    </text>
<text text-anchor="start" x="164.3534" y="-143.9" font-family="Arial" font-size="14.00" fill="#666666">[date]</text>
<polygon fill="none" stroke="#000000" points="43,-102.5 43,-132.5 349,-132.5 349,-102.5 43,-102.5"/>
<text text-anchor="start" x="50" y="-113.9" font-family="Arial" font-size="14.00" fill="#000000">_horario_coleta    </text>
<text text-anchor="start" x="180.6732" y="-113.9" font-family="Arial" font-size="14.00" fill="#666666">[time without time zone]</text>
<polygon fill="none" stroke="#000000" points="43,-72.5 43,-102.5 349,-102.5 349,-72.5 43,-72.5"/>
<text text-anchor="start" x="50" y="-83.9" font-family="Arial" font-size="14.00" fill="#000000">_pagina    </text>
<text text-anchor="start" x="134.007" y="-83.9" font-family="Arial" font-size="14.00" fill="#666666">[smallint]</text>
<polygon fill="none" stroke="#000000" points="43,-42.5 43,-72.5 349,-72.5 349,-42.5 43,-42.5"/>
<text text-anchor="start" x="50" y="-53.9" font-family="Arial" font-size="14.00" fill="#000000">_ordem    </text>
<text text-anchor="start" x="131.6564" y="-53.9" font-family="Arial" font-size="14.00" fill="#666666">[smallint]</text>
</g>
<!-- public.view_mercado_livre -->
<g id="node2" class="node">
<title>public.view_mercado_livre</title>
<polygon fill="#efefef" stroke="transparent" points="453,-432.5 453,-467.5 755,-467.5 755,-432.5 453,-432.5"/>
<polygon fill="none" stroke="#000000" points="453,-432.5 453,-467.5 755,-467.5 755,-432.5 453,-432.5"/>
<text text-anchor="start" x="459.6117" y="-445.3" font-family="Arial Bold" font-size="18.00" fill="#000000">public.view_mercado_livre</text>
<text text-anchor="start" x="670.6239" y="-445.3" font-family="Arial" font-size="14.00" fill="#000000">    </text>
<text text-anchor="start" x="704.8287" y="-445.3" font-family="Arial" font-size="14.00" fill="#666666">[VIEW]</text>
<polygon fill="none" stroke="#000000" points="453,-402.5 453,-432.5 755,-432.5 755,-402.5 453,-402.5"/>
<text text-anchor="start" x="460" y="-413.9" font-family="Arial" font-size="14.00" fill="#000000">marca    </text>
<text text-anchor="start" x="533.0912" y="-413.9" font-family="Arial" font-size="14.00" fill="#666666">[varchar(255)]</text>
<polygon fill="none" stroke="#000000" points="453,-372.5 453,-402.5 755,-402.5 755,-372.5 453,-372.5"/>
<text text-anchor="start" x="460" y="-383.9" font-family="Arial" font-size="14.00" fill="#000000">produto    </text>
<text text-anchor="start" x="541.669" y="-383.9" font-family="Arial" font-size="14.00" fill="#666666">[varchar(255)]</text>
<polygon fill="none" stroke="#000000" points="453,-342.5 453,-372.5 755,-372.5 755,-342.5 453,-342.5"/>
<text text-anchor="start" x="460" y="-353.9" font-family="Arial" font-size="14.00" fill="#000000">preco_velho    </text>
<text text-anchor="start" x="570.4502" y="-353.9" font-family="Arial" font-size="14.00" fill="#666666">[real]</text>
<polygon fill="none" stroke="#000000" points="453,-312.5 453,-342.5 755,-342.5 755,-312.5 453,-312.5"/>
<text text-anchor="start" x="460" y="-323.9" font-family="Arial" font-size="14.00" fill="#000000">preco_atual    </text>
<text text-anchor="start" x="567.3408" y="-323.9" font-family="Arial" font-size="14.00" fill="#666666">[real]</text>
<polygon fill="none" stroke="#000000" points="453,-282.5 453,-312.5 755,-312.5 755,-282.5 453,-282.5"/>
<text text-anchor="start" x="460" y="-293.9" font-family="Arial" font-size="14.00" fill="#000000">promocao    </text>
<text text-anchor="start" x="556.439" y="-293.9" font-family="Arial" font-size="14.00" fill="#666666">[boolean]</text>
<polygon fill="none" stroke="#000000" points="453,-252.5 453,-282.5 755,-282.5 755,-252.5 453,-252.5"/>
<text text-anchor="start" x="460" y="-263.9" font-family="Arial" font-size="14.00" fill="#000000">percentual_promocao    </text>
<text text-anchor="start" x="629.575" y="-263.9" font-family="Arial" font-size="14.00" fill="#666666">[real]</text>
<polygon fill="none" stroke="#000000" points="453,-222.5 453,-252.5 755,-252.5 755,-222.5 453,-222.5"/>
<text text-anchor="start" x="460" y="-233.9" font-family="Arial" font-size="14.00" fill="#000000">nota_avaliacao    </text>
<text text-anchor="start" x="588.352" y="-233.9" font-family="Arial" font-size="14.00" fill="#666666">[real]</text>
<polygon fill="none" stroke="#000000" points="453,-192.5 453,-222.5 755,-222.5 755,-192.5 453,-192.5"/>
<text text-anchor="start" x="460" y="-203.9" font-family="Arial" font-size="14.00" fill="#000000">num_avaliacoes    </text>
<text text-anchor="start" x="595.3394" y="-203.9" font-family="Arial" font-size="14.00" fill="#666666">[integer]</text>
<polygon fill="none" stroke="#000000" points="453,-162.5 453,-192.5 755,-192.5 755,-162.5 453,-162.5"/>
<text text-anchor="start" x="460" y="-173.9" font-family="Arial" font-size="14.00" fill="#000000">data_coleta    </text>
<text text-anchor="start" x="566.5708" y="-173.9" font-family="Arial" font-size="14.00" fill="#666666">[date]</text>
<polygon fill="none" stroke="#000000" points="453,-132.5 453,-162.5 755,-162.5 755,-132.5 453,-132.5"/>
<text text-anchor="start" x="460" y="-143.9" font-family="Arial" font-size="14.00" fill="#000000">horario_coleta    </text>
<text text-anchor="start" x="582.8906" y="-143.9" font-family="Arial" font-size="14.00" fill="#666666">[time without time zone]</text>
<polygon fill="none" stroke="#000000" points="453,-102.5 453,-132.5 755,-132.5 755,-102.5 453,-102.5"/>
<text text-anchor="start" x="460" y="-113.9" font-family="Arial" font-size="14.00" fill="#000000">pagina    </text>
<text text-anchor="start" x="536.2244" y="-113.9" font-family="Arial" font-size="14.00" fill="#666666">[smallint]</text>
<polygon fill="none" stroke="#000000" points="453,-72.5 453,-102.5 755,-102.5 755,-72.5 453,-72.5"/>
<text text-anchor="start" x="460" y="-83.9" font-family="Arial" font-size="14.00" fill="#000000">ordem    </text>
<text text-anchor="start" x="533.8738" y="-83.9" font-family="Arial" font-size="14.00" fill="#666666">[smallint]</text>
</g>
</g>
</svg>
